<?xml version="1.0" standalone="no"?>
<!DOCTYPE svg PUBLIC "-//W3C//DTD SVG 20010904//EN"
 "http://www.w3.org/TR/2001/REC-SVG-20010904/DTD/svg10.dtd">
<svg version="1.0" xmlns="http://www.w3.org/2000/svg"
 width="479.000000pt" height="479.000000pt" viewBox="0 0 479.000000 479.000000"
 preserveAspectRatio="xMidYMid meet">
<metadata>
Created by potrace 1.11, written by Peter Selinger 2001-2013
</metadata>
<g transform="translate(0.000000,479.000000) scale(0.100000,-0.100000)"
fill="#000000" stroke="none">
<path d="M34 4756 l-34 -34 0 -2327 0 -2327 34 -34 34 -34 2327 0 2327 0 34
34 34 34 0 2327 0 2327 -34 34 -34 34 -2327 0 -2327 0 -34 -34z m2943 -709
l28 -27 3 -1076 c3 -1175 5 -1126 -54 -1153 -18 -8 -318 -11 -1103 -11 l-1078
0 -26 24 c-14 13 -29 35 -32 48 -3 12 -4 505 -3 1094 3 1056 3 1072 23 1094
11 12 29 26 40 31 11 4 505 7 1097 6 l1078 -2 27 -28z m1070 0 l28 -27 3
-1073 c1 -589 0 -1083 -3 -1095 -3 -13 -18 -35 -32 -48 -26 -24 -27 -24 -247
-24 -238 0 -247 2 -275 57 -8 16 -11 325 -11 1098 l0 1077 35 35 34 34 220 -3
221 -3 27 -28z m-2816 -2787 c43 -24 49 -57 49 -276 l0 -206 -35 -35 -34 -34
-220 3 -221 3 -27 28 -28 27 -3 202 c-2 111 0 213 3 226 3 13 18 35 32 48 26
24 27 24 245 24 131 0 227 -4 239 -10z m2812 -14 c14 -13 29 -35 32 -48 3 -13
5 -115 3 -226 l-3 -202 -28 -27 -27 -28 -1090 0 -1090 0 -27 28 -28 27 -3 193
c-4 222 -1 245 35 281 l26 26 1087 0 1087 0 26 -24z"/>
</g>
</svg>
